<svg width="402" height="50" viewBox="0 0 402 50" fill="none" xmlns="http://www.w3.org/2000/svg">
<rect width="402" height="50" fill="white"/>
<path d="M56.2632 38.2988C55.3114 38.2988 54.4951 38.0443 53.8145 37.5352C53.1393 37.026 52.6191 36.3011 52.2539 35.3604C51.8887 34.4196 51.7061 33.3045 51.7061 32.0151V31.9985C51.7061 30.7091 51.8887 29.5968 52.2539 28.6616C52.6191 27.7209 53.1393 26.9959 53.8145 26.4868C54.4951 25.9777 55.3114 25.7231 56.2632 25.7231C57.215 25.7231 58.0312 25.9777 58.7119 26.4868C59.3926 26.9959 59.9155 27.7209 60.2808 28.6616C60.646 29.5968 60.8286 30.7091 60.8286 31.9985V32.0151C60.8286 33.3045 60.646 34.4196 60.2808 35.3604C59.9155 36.3011 59.3926 37.026 58.7119 37.5352C58.0312 38.0443 57.215 38.2988 56.2632 38.2988ZM56.2632 36.564C56.7723 36.564 57.2067 36.3813 57.5664 36.0161C57.9261 35.6509 58.2 35.1307 58.3882 34.4556C58.5819 33.7749 58.6787 32.9614 58.6787 32.0151V31.9985C58.6787 31.0522 58.5819 30.2415 58.3882 29.5664C58.2 28.8857 57.9261 28.3656 57.5664 28.0059C57.2067 27.6406 56.7723 27.458 56.2632 27.458C55.7541 27.458 55.3197 27.6406 54.96 28.0059C54.6058 28.3656 54.3319 28.8857 54.1382 29.5664C53.95 30.2415 53.856 31.0522 53.856 31.9985V32.0151C53.856 32.9614 53.95 33.7749 54.1382 34.4556C54.3319 35.1307 54.6058 35.6509 54.96 36.0161C55.3197 36.3813 55.7541 36.564 56.2632 36.564ZM67.4194 25.7231C68.0614 25.7231 68.6701 25.8421 69.2456 26.0801C69.8211 26.3125 70.3302 26.6777 70.7729 27.1758C71.2212 27.6683 71.5726 28.3019 71.8271 29.0767C72.0817 29.8459 72.209 30.7728 72.209 31.8574V31.874C72.209 33.2188 72.0153 34.3698 71.6279 35.3271C71.2406 36.2845 70.6844 37.0205 69.9595 37.5352C69.2401 38.0443 68.3796 38.2988 67.3779 38.2988C66.6419 38.2988 65.9779 38.166 65.3857 37.9004C64.7992 37.6292 64.3122 37.2585 63.9248 36.7881C63.543 36.3122 63.2856 35.7699 63.1528 35.1611L63.1362 35.0698H65.2363L65.2695 35.1528C65.3747 35.4295 65.5241 35.673 65.7178 35.8833C65.917 36.0936 66.1549 36.2568 66.4316 36.373C66.7139 36.4837 67.0293 36.5391 67.3779 36.5391C68.0088 36.5391 68.5234 36.3537 68.9219 35.9829C69.3258 35.6066 69.6274 35.1058 69.8267 34.4805C70.0314 33.8496 70.1476 33.1523 70.1753 32.3887C70.1808 32.3057 70.1836 32.2254 70.1836 32.1479C70.1836 32.0649 70.1836 31.9847 70.1836 31.9072L69.8101 29.9067C69.8101 29.453 69.7049 29.0407 69.4946 28.6699C69.2843 28.2992 68.9993 28.0059 68.6396 27.79C68.2855 27.5742 67.8843 27.4663 67.436 27.4663C67.0044 27.4663 66.6087 27.5715 66.249 27.7817C65.8893 27.992 65.6016 28.2798 65.3857 28.645C65.1699 29.0047 65.062 29.4087 65.062 29.8569V29.8735C65.062 30.3384 65.1644 30.7507 65.3691 31.1104C65.5739 31.4645 65.8534 31.744 66.2075 31.9487C66.5617 32.1535 66.9657 32.2559 67.4194 32.2559C67.8732 32.2559 68.2799 32.1562 68.6396 31.957C68.9993 31.7578 69.2843 31.4811 69.4946 31.127C69.7049 30.7728 69.8101 30.3716 69.8101 29.9233V29.9067H70.3081V32.1147H70.0176C69.8737 32.4302 69.6606 32.7235 69.3784 32.9946C69.0962 33.2658 68.7476 33.4844 68.3325 33.6504C67.923 33.8164 67.4416 33.8994 66.8882 33.8994C66.1245 33.8994 65.4494 33.7279 64.8628 33.3848C64.2762 33.0417 63.8141 32.5713 63.4766 31.9736C63.1445 31.376 62.9785 30.7008 62.9785 29.9482V29.9316C62.9785 29.1182 63.1667 28.396 63.543 27.7651C63.9248 27.1287 64.4505 26.6307 65.1201 26.271C65.7952 25.9058 66.5617 25.7231 67.4194 25.7231ZM75.9775 36.3896C75.6012 36.3896 75.2858 36.2651 75.0312 36.0161C74.7822 35.7616 74.6577 35.4517 74.6577 35.0864C74.6577 34.7157 74.7822 34.4058 75.0312 34.1567C75.2858 33.9022 75.6012 33.7749 75.9775 33.7749C76.3594 33.7749 76.6748 33.9022 76.9238 34.1567C77.1729 34.4058 77.2974 34.7157 77.2974 35.0864C77.2974 35.4517 77.1729 35.7616 76.9238 36.0161C76.6748 36.2651 76.3594 36.3896 75.9775 36.3896ZM75.9775 30.2305C75.6012 30.2305 75.2858 30.106 75.0312 29.8569C74.7822 29.6024 74.6577 29.2925 74.6577 28.9272C74.6577 28.5565 74.7822 28.2466 75.0312 27.9976C75.2858 27.743 75.6012 27.6157 75.9775 27.6157C76.3594 27.6157 76.6748 27.743 76.9238 27.9976C77.1729 28.2466 77.2974 28.5565 77.2974 28.9272C77.2974 29.2925 77.1729 29.6024 76.9238 29.8569C76.6748 30.106 76.3594 30.2305 75.9775 30.2305ZM85.5566 38V35.7007H79.6963V33.9492C80.0117 33.4124 80.3271 32.8729 80.6426 32.3306C80.9635 31.7882 81.2873 31.2487 81.6138 30.7119C81.9458 30.1696 82.2751 29.6356 82.6016 29.1099C82.9336 28.5786 83.2629 28.0557 83.5894 27.541C83.9214 27.0208 84.2534 26.5145 84.5854 26.022H87.5986V33.9326H89.2173V35.7007H87.5986V38H85.5566ZM81.6885 33.9824H85.5898V27.7319H85.4653C85.2218 28.1082 84.9701 28.4956 84.71 28.894C84.4554 29.2925 84.1981 29.6992 83.938 30.1143C83.6779 30.5293 83.4206 30.9471 83.166 31.3677C82.9115 31.7827 82.6597 32.2005 82.4106 32.6211C82.1616 33.0361 81.9209 33.4484 81.6885 33.8579V33.9824ZM94.1729 38V28.1304H94.0234L91.0435 30.2305V28.2217L94.1729 26.022H96.3062V38H94.1729Z" fill="black"/>
<path fill-rule="evenodd" clip-rule="evenodd" d="M307.865 27.033C307.865 26.4 307.388 25.8868 306.798 25.8868H305.732C305.143 25.8868 304.665 26.4 304.665 27.033V36.967C304.665 37.6 305.143 38.1132 305.732 38.1132H306.798C307.388 38.1132 307.865 37.6 307.865 36.967V27.033ZM300.431 28.3321H301.498C302.087 28.3321 302.564 28.8576 302.564 29.5058V36.9395C302.564 37.5877 302.087 38.1132 301.498 38.1132H300.431C299.842 38.1132 299.364 37.5877 299.364 36.9395V29.5058C299.364 28.8576 299.842 28.3321 300.431 28.3321ZM296.099 30.9811H295.033C294.443 30.9811 293.966 31.5133 293.966 32.1698V36.9245C293.966 37.581 294.443 38.1132 295.033 38.1132H296.099C296.688 38.1132 297.166 37.581 297.166 36.9245V32.1698C297.166 31.5133 296.688 30.9811 296.099 30.9811ZM290.798 33.4264H289.732C289.143 33.4264 288.665 33.951 288.665 34.5981V36.9415C288.665 37.5886 289.143 38.1132 289.732 38.1132H290.798C291.388 38.1132 291.865 37.5886 291.865 36.9415V34.5981C291.865 33.951 291.388 33.4264 290.798 33.4264Z" fill="black"/>
<path fill-rule="evenodd" clip-rule="evenodd" d="M323.436 28.3021C325.924 28.3022 328.316 29.2243 330.118 30.8778C330.254 31.0055 330.471 31.0038 330.604 30.8742L331.902 29.6107C331.97 29.545 332.007 29.4559 332.007 29.3632C332.006 29.2705 331.967 29.1819 331.899 29.1169C327.168 24.7422 319.704 24.7422 314.973 29.1169C314.905 29.1818 314.866 29.2704 314.865 29.3631C314.865 29.4558 314.902 29.5449 314.97 29.6107L316.268 30.8742C316.401 31.004 316.618 31.0056 316.754 30.8778C318.557 29.2242 320.949 28.3021 323.436 28.3021ZM323.433 32.5224C324.79 32.5223 326.099 33.0341 327.105 33.9582C327.241 34.0893 327.456 34.0865 327.589 33.9518L328.876 32.6325C328.944 32.5633 328.981 32.4694 328.98 32.3718C328.979 32.2743 328.94 32.1812 328.871 32.1134C325.807 29.2226 321.062 29.2226 317.998 32.1134C317.929 32.1812 317.89 32.2743 317.889 32.3719C317.888 32.4695 317.925 32.5634 317.993 32.6325L319.28 33.9518C319.413 34.0865 319.627 34.0893 319.763 33.9582C320.769 33.0347 322.077 32.523 323.433 32.5224ZM325.958 35.316C325.959 35.4213 325.922 35.5229 325.855 35.5967L323.678 38.0514C323.615 38.1236 323.528 38.1642 323.437 38.1642C323.346 38.1642 323.259 38.1236 323.195 38.0514L321.018 35.5967C320.951 35.5228 320.914 35.4212 320.916 35.3159C320.918 35.2105 320.959 35.1108 321.029 35.0401C322.419 33.7262 324.455 33.7262 325.845 35.0401C325.915 35.1108 325.956 35.2106 325.958 35.316Z" fill="black"/>
<rect opacity="0.35" x="339.507" y="26" width="24" height="12" rx="3.8" stroke="black"/>
<path opacity="0.4" d="M365.007 30.2811V34.3566C365.812 34.0114 366.335 33.2085 366.335 32.3189C366.335 31.4293 365.812 30.6263 365.007 30.2811" fill="black"/>
<rect x="341.007" y="27.5" width="21" height="9" rx="2.5" fill="black"/>
</svg>
